<svg width="35" height="35" viewBox="0 0 35 35" fill="none" xmlns="http://www.w3.org/2000/svg">
<path d="M21.5 8.49998C21.1946 8.81153 21.0235 9.23039 21.0235 9.66664C21.0235 10.1029 21.1946 10.5218 21.5 10.8333L24.1666 13.5C24.4782 13.8054 24.8971 13.9764 25.3333 13.9764C25.7696 13.9764 26.1884 13.8054 26.5 13.5L32.7833 7.21664C33.6214 9.06863 33.8751 11.132 33.5107 13.1319C33.1464 15.1317 32.1812 16.9731 30.7438 18.4104C29.3064 19.8478 27.4651 20.813 25.4652 21.1774C23.4654 21.5418 21.402 21.288 19.55 20.45L8.03331 31.9666C7.37026 32.6297 6.47099 33.0022 5.53331 33.0022C4.59562 33.0022 3.69635 32.6297 3.03331 31.9666C2.37026 31.3036 1.99777 30.4043 1.99777 29.4666C1.99777 28.529 2.37026 27.6297 3.03331 26.9666L14.55 15.45C13.7119 13.598 13.4582 11.5346 13.8225 9.53473C14.1869 7.53488 15.1521 5.69357 16.5895 4.25618C18.0269 2.81879 19.8682 1.85359 21.8681 1.48921C23.8679 1.12484 25.9313 1.37858 27.7833 2.21664L21.5166 8.48331L21.5 8.49998Z" stroke="#3C64B1" stroke-width="2" stroke-linecap="round" stroke-linejoin="round"/>
</svg>
