<svg width="32" height="32" viewBox="0 0 32 32" fill="none" xmlns="http://www.w3.org/2000/svg">
<path d="M21.3334 4H1.33337V21.3333H21.3334V4Z" stroke="#3C64B1" stroke-width="2" stroke-linecap="round" stroke-linejoin="round"/>
<path d="M21.3334 10.6667H26.6667L30.6667 14.6667V21.3334H21.3334V10.6667Z" stroke="#3C64B1" stroke-width="2" stroke-linecap="round" stroke-linejoin="round"/>
<path d="M7.33333 28C9.17428 28 10.6667 26.5076 10.6667 24.6666C10.6667 22.8257 9.17428 21.3333 7.33333 21.3333C5.49238 21.3333 4 22.8257 4 24.6666C4 26.5076 5.49238 28 7.33333 28Z" stroke="#3C64B1" stroke-width="2" stroke-linecap="round" stroke-linejoin="round"/>
<path d="M24.6667 28C26.5077 28 28 26.5076 28 24.6666C28 22.8257 26.5077 21.3333 24.6667 21.3333C22.8258 21.3333 21.3334 22.8257 21.3334 24.6666C21.3334 26.5076 22.8258 28 24.6667 28Z" stroke="#3C64B1" stroke-width="2" stroke-linecap="round" stroke-linejoin="round"/>
</svg>
